<svg xmlns="http://www.w3.org/2000/svg" viewBox="0 0 469 453.44"><g id="freepik--Character--inject-2"><path d="M249.94,243.81s9.62-16.63,11-17.5,6.66-.7,7.18,0,.18,9.8-.35,10.32-9.8,3.85-9.8,3.85l-6.83,18.38Z" transform="translate(-17 -16.9)" style="fill:#fff;stroke:#263238;stroke-linecap:round;stroke-linejoin:round"></path><path d="M266.33,238l.17,3.72a3.57,3.57,0,0,0,3.75,3.41h0a3.59,3.59,0,0,0,3.42-3.58v-9.91" transform="translate(-17 -16.9)" style="fill:none;stroke:#263238;stroke-linecap:round;stroke-linejoin:round;stroke-width:3px"></path><line x1="242.33" y1="71.44" x2="249.33" y2="221.13" style="fill:none;stroke:#263238;stroke-linecap:round;stroke-linejoin:round;stroke-width:2px"></line><path d="M255.36,237.51s.18-8,.88-9.63,4.55-3.5,5.6-5.25,3-2.45,3-.7-1.57,3.33-1.92,3.85-.88,5.95-1.93,7.53a16.36,16.36,0,0,1-1.75,2.27" transform="translate(-17 -16.9)" style="fill:#fff;stroke:#263238;stroke-linecap:round;stroke-linejoin:round"></path><path d="M264.64,223.68,265,226s5.6.7,5.95-.53.88-2.28.18-2.63S265,223,265,223Z" transform="translate(-17 -16.9)" style="fill:#fff;stroke:#263238;stroke-linecap:round;stroke-linejoin:round"></path><path d="M269.72,226.31s-5.43-.18-5.78.52a6.4,6.4,0,0,0,0,2.63s5.43.17,6.3-.35S270.42,226.31,269.72,226.31Z" transform="translate(-17 -16.9)" style="fill:#fff;stroke:#263238;stroke-linecap:round;stroke-linejoin:round"></path><path d="M270.24,229.11a22.41,22.41,0,0,1-.87,2.45c-.35.7-4.91,1.05-5.43.7s-.88-2.63,0-2.8S270.24,229.11,270.24,229.11Z" transform="translate(-17 -16.9)" style="fill:#fff;stroke:#263238;stroke-linecap:round;stroke-linejoin:round"></path><path d="M269.37,231.56s.87,1.92-.35,3-5.43,1.4-5.43.18.52-2.28,1.4-2.28A38,38,0,0,0,269.37,231.56Z" transform="translate(-17 -16.9)" style="fill:#fff;stroke:#263238;stroke-linecap:round;stroke-linejoin:round"></path><path d="M192.12,145.7a87.8,87.8,0,0,1,26,2.17c12.33-5.31,28.44-8.54,46.09-8.54a125.74,125.74,0,0,1,39.1,5.88c7.79-4.17,19.12-7.14,31.85-7.85a93.38,93.38,0,0,1,20.89,1.1C342.74,107.86,307.6,86,266.33,86c-45.7,0-83.89,26.83-93.17,62.63A93.84,93.84,0,0,1,192.12,145.7Z" transform="translate(-17 -16.9)" style="fill:#92E3A9;stroke:#263238;stroke-linecap:round;stroke-linejoin:round"></path><line x1="186.91" y1="83.71" x2="190.27" y2="85.15" style="fill:none;stroke:#263238;stroke-linecap:round;stroke-linejoin:round"></line><line x1="193.64" y1="78.43" x2="193.64" y2="81.31" style="fill:none;stroke:#263238;stroke-linecap:round;stroke-linejoin:round"></line><line x1="182.1" y1="87.07" x2="184.99" y2="87.07" style="fill:none;stroke:#263238;stroke-linecap:round;stroke-linejoin:round"></line><line x1="248.41" y1="64.01" x2="249.85" y2="66.41" style="fill:none;stroke:#263238;stroke-linecap:round;stroke-linejoin:round"></line><line x1="254.66" y1="68.34" x2="257.54" y2="63.05" style="fill:none;stroke:#263238;stroke-linecap:round;stroke-linejoin:round"></line><line x1="289.73" y1="73.62" x2="290.21" y2="76.5" style="fill:none;stroke:#263238;stroke-linecap:round;stroke-linejoin:round"></line><line x1="294.53" y1="76.5" x2="299.82" y2="72.18" style="fill:none;stroke:#263238;stroke-linecap:round;stroke-linejoin:round"></line><line x1="310.39" y1="83.71" x2="310.87" y2="86.11" style="fill:none;stroke:#263238;stroke-linecap:round;stroke-linejoin:round"></line><line x1="314.23" y1="87.55" x2="318.56" y2="85.63" style="fill:none;stroke:#263238;stroke-linecap:round;stroke-linejoin:round"></line><line x1="312.79" y1="84.19" x2="312.79" y2="80.83" style="fill:none;stroke:#263238;stroke-linecap:round;stroke-linejoin:round"></line><line x1="323.84" y1="98.61" x2="324.32" y2="94.28" style="fill:none;stroke:#263238;stroke-linecap:round;stroke-linejoin:round"></line><line x1="326.73" y1="100.05" x2="332.49" y2="99.09" style="fill:none;stroke:#263238;stroke-linecap:round;stroke-linejoin:round"></line><line x1="326.73" y1="97.16" x2="329.13" y2="95.72" style="fill:none;stroke:#263238;stroke-linecap:round;stroke-linejoin:round"></line><line x1="163.37" y1="101.01" x2="167.21" y2="102.93" style="fill:none;stroke:#263238;stroke-linecap:round;stroke-linejoin:round"></line><line x1="169.61" y1="97.16" x2="170.09" y2="100.53" style="fill:none;stroke:#263238;stroke-linecap:round;stroke-linejoin:round"></line><line x1="166.25" y1="104.85" x2="163.37" y2="105.33" style="fill:none;stroke:#263238;stroke-linecap:round;stroke-linejoin:round"></line><path d="M220.53,133.39c4.13-13.54,13.88-34.07,36.14-43.06" transform="translate(-17 -16.9)" style="fill:none;stroke:#263238;stroke-linecap:round;stroke-linejoin:round"></path><path d="M217.67,146.33a66.38,66.38,0,0,1,1.69-8.74" transform="translate(-17 -16.9)" style="fill:none;stroke:#263238;stroke-linecap:round;stroke-linejoin:round"></path><path d="M302.05,139.48c.33,1.36.65,2.75.95,4.19" transform="translate(-17 -16.9)" style="fill:none;stroke:#263238;stroke-linecap:round;stroke-linejoin:round"></path><path d="M267,91.33s23.14,3,34.32,45.25" transform="translate(-17 -16.9)" style="fill:none;stroke:#263238;stroke-linecap:round;stroke-linejoin:round"></path><line x1="242.13" y1="69.15" x2="241.96" y2="64.46" style="fill:none;stroke:#263238;stroke-linecap:round;stroke-linejoin:round;stroke-width:2px"></line><path d="M266.87,396.82s2.24,4-.22,5.59-21-.23-22.58-.67,9.84-6.71,15-7.38A9,9,0,0,1,266.87,396.82Z" transform="translate(-17 -16.9)" style="fill:#263238;stroke:#263238;stroke-linecap:round;stroke-linejoin:round"></path><path d="M273.7,394.31s-16.22,5.41-23.15,7.43a54.49,54.49,0,0,1-17.43,2c-3.81-.22-8.72-9.17-3.36-13s29.07-4,32.64-4S272.25,390,273.7,394.31Z" transform="translate(-17 -16.9)" style="fill:#737373;stroke:#263238;stroke-linecap:round;stroke-linejoin:round"></path><path d="M239.82,393.46s3.13,13,5.37,21.24,3.58,16.55,3.58,16.55-4.48,8.94-4.25,11.4,1.34,9.84,1.34,9.84h2.23s-.22-3.58-.22-5.59a13.81,13.81,0,0,1,.22-2.91s4.7,5.59,5.59,7.16a3,3,0,0,0,2.69,1.78c.67,0,10.61.67,11.73,0s1.12-1.11,0-2-7.26-6.26-7.26-6.26-2.24-9.39-3.36-12.07a20.07,20.07,0,0,1-1.34-4.25l-.22-35.77Z" transform="translate(-17 -16.9)" style="fill:#fff;stroke:#263238;stroke-linecap:round;stroke-linejoin:round"></path><path d="M248.09,452.49s-.22-3.58-.22-5.59a13.81,13.81,0,0,1,.22-2.91s4.7,5.59,5.59,7.16a3,3,0,0,0,2.69,1.78c.67,0,10.61.67,11.73,0s1.12-1.11,0-2c-.39-.31-1.26-1.16-2.24-2.13-2,.37-5,.83-6.14.34-1.36-.58-11.2-9.47-13.72-11.76-.86,2.14-1.58,4.26-1.48,5.28.22,2.46,1.34,9.84,1.34,9.84Z" transform="translate(-17 -16.9)" style="fill:#263238;stroke:#263238;stroke-linecap:round;stroke-linejoin:round"></path><path d="M199.8,397.94l-12.07,17.21s-5.81-2-7.38-1.79-12.52,4.47-12.52,4.47l.23,1.35L179,416.94a22.79,22.79,0,0,1-3.13,9.39c-2.68,4-4.69,5.14-4.69,8.5s.22,10.5,2.23,10.5,3.13-3.8,4.25-5.81,9.17-9.84,11-13.19a66,66,0,0,1,4-6.48l22.8-18.78Z" transform="translate(-17 -16.9)" style="fill:#fff;stroke:#263238;stroke-linecap:round;stroke-linejoin:round"></path><path d="M176.55,438.63c-3.13-1.12-3.13-2.69-1.56-5.59s5.59-7.6,6.7-11.41c.79-2.65,2-5.85,2.66-7.53a13.82,13.82,0,0,0-4-.74c-1.56.23-12.52,4.47-12.52,4.47l.23,1.35L179,416.94a22.79,22.79,0,0,1-3.13,9.39c-2.68,4-4.69,5.14-4.69,8.5s.22,10.5,2.23,10.5,3.13-3.8,4.25-5.81a4.66,4.66,0,0,1,.29-.45C177.52,439,177.06,438.81,176.55,438.63Z" transform="translate(-17 -16.9)" style="fill:#263238;stroke:#263238;stroke-linecap:round;stroke-linejoin:round"></path><path d="M251.09,279.23s2.77,26.3,2.77,30.91a73.8,73.8,0,0,0,.92,10.15s6,17.3,10.15,32.29,8.77,41.73,8.77,41.73-29.07,1.84-37.37,3-5.53,1.84-3.23,2.3,9.46,3,7.84,3.93-15,2.07-27,.46-22.38-8.08-22.38-8.08L192,392l-8.53-4.61s16.38-55.57,17.3-60.18,1.44-15.7,1.9-20.54,3.95-21,6.48-28.62C209.19,278.05,234.72,282,251.09,279.23Z" transform="translate(-17 -16.9)" style="fill:#263238;stroke:#263238;stroke-linecap:round;stroke-linejoin:round"></path><path d="M229.76,387c-.06-12.15-.32-32.11-1.34-46.12" transform="translate(-17 -16.9)" style="fill:none;stroke:#878787;stroke-linecap:round;stroke-linejoin:round"></path><path d="M229.76,397.71s0-2.64,0-6.93" transform="translate(-17 -16.9)" style="fill:none;stroke:#878787;stroke-linecap:round;stroke-linejoin:round"></path><path d="M200.86,343.3c.1-.6.19-1.18.28-1.75" transform="translate(-17 -16.9)" style="fill:none;stroke:#878787;stroke-linecap:round;stroke-linejoin:round"></path><path d="M192.43,388.77s4.9-24.74,7.95-42.63" transform="translate(-17 -16.9)" style="fill:none;stroke:#878787;stroke-linecap:round;stroke-linejoin:round"></path><path d="M237.48,224.34c.7.46,13.15,16.14,14.77,22.37s.92,13.84.69,19.38,0,12.45-.92,13.37-11.08,3.69-20.76,2.77-26.3-1.61-28.61-4.84,1.39-21.68,1.39-30-.23-10.84,2.54-15.91,10.61-9.92,16.6-10.38S237.48,224.34,237.48,224.34Z" transform="translate(-17 -16.9)" style="fill:#92E3A9;stroke:#263238;stroke-linecap:round;stroke-linejoin:round"></path><path d="M247.86,183.05s-.46,5.76.7,8.07a16.64,16.64,0,0,0,2.76,3.92l-3,3.69s-1.62,6.92-3.23,7.85-8.77.92-8.77.92-.23,14.07-.23,14.76S222.49,216,222.49,216s2.54-9.92,1.39-13.14-5.08-5.77-6.92-9,2.53-13.61,10.38-18,11.07-4.62,15.68-2.54S247.86,183.05,247.86,183.05Z" transform="translate(-17 -16.9)" style="fill:#fff;stroke:#263238;stroke-linecap:round;stroke-linejoin:round"></path><path d="M242.79,189.74s2.08-1.39,3.23,0" transform="translate(-17 -16.9)" style="fill:none;stroke:#263238;stroke-linecap:round;stroke-linejoin:round"></path><path d="M246.25,198.73a2.48,2.48,0,0,1-3-.46" transform="translate(-17 -16.9)" style="fill:none;stroke:#263238;stroke-linecap:round;stroke-linejoin:round"></path><path d="M225.26,192.51a21.84,21.84,0,0,0,7.61-3.23c3.69-2.54,5.08-5.77,5.31-7.38a20.12,20.12,0,0,0,.23-2.54l2.3,6.23s.93.46,5.08-.93a42.92,42.92,0,0,0,7.61-3.46s-.46-7.61-5.31-11.07a31.05,31.05,0,0,0-10.61-4.61,21.72,21.72,0,0,0-15.68-.23c-8.07,3.23-12,12.45-11.53,19.83s5.3,11.08,8.53,12S225.26,192.51,225.26,192.51Z" transform="translate(-17 -16.9)" style="fill:#263238;stroke:#263238;stroke-linecap:round;stroke-linejoin:round"></path><path d="M227.8,194.35s-2.08-6.69-6.46-3.92-2.08,8.07,1.38,10.15,5.54-.23,5.54-.23" transform="translate(-17 -16.9)" style="fill:#fff;stroke:#263238;stroke-miterlimit:10"></path><path d="M213,173.82s-7.38-.23-12.45,4.62-3.92,27-4.15,31.83a45.52,45.52,0,0,1-.7,6.92,28.52,28.52,0,0,0,9.92,1.61A31.9,31.9,0,0,0,217,216.49s-7.15-16.14-7.39-25.83S210,181,213,173.82Z" transform="translate(-17 -16.9)" style="fill:#263238;stroke:#263238;stroke-linecap:round;stroke-linejoin:round"></path><path d="M240.48,225a40.32,40.32,0,0,0-9.92-9.69c-5.76-3.69-7.38-1.84-13.6,1.15s-10.85,6.23-11.77,10.85-3,7.84-.92,7.61,5.77-5.77,10.38-9.23,10.15-3.69,14.76-2.54,11.3,6,12.46,4.85S240.48,225,240.48,225Z" transform="translate(-17 -16.9)" style="fill:#92E3A9;stroke:#263238;stroke-linecap:round;stroke-linejoin:round"></path><path d="M213,230.21A15,15,0,0,1,226.18,228c7.83,2.24,8.95,8.28,9.39,16.77s1.35,54.78,1.35,54.78l-2.24-2.46-1.12-47.85s-1.56-13-5.36-16.54-10.73-3.36-14.09-1.34a26.58,26.58,0,0,0-4,2.68s-4.92,7.6-6,15-3.13,47.84-3.13,47.84L197.79,298l4-47.17S204.27,235,213,230.21Z" transform="translate(-17 -16.9)" style="fill:#878787;stroke:#263238;stroke-linecap:round;stroke-linejoin:round"></path><path d="M232.67,295.27s-18.78,2-26.38.44-10.06,1.35-10.73,5.15-1.12,14.08-3.13,19.89.22,7.83,3.35,8.95,26.38,4.24,33.53,3.57,10.07-1.56,11.18-4.47-3.35-24.49-3.24-28.12A5.21,5.21,0,0,0,232.67,295.27Z" transform="translate(-17 -16.9)" style="fill:#878787;stroke:#263238;stroke-linecap:round;stroke-linejoin:round"></path><path d="M195.78,311.14s32.86,2.68,37.11,2,2.46-6.93,2.46-11.4,1.12-1.34,1.57,3.58" transform="translate(-17 -16.9)" style="fill:none;stroke:#263238;stroke-linecap:round;stroke-linejoin:round"></path><path d="M226,285.69s3.92,3.92,5.31,4.38,6.69,1.16,8.76,2.31,2.31,6,2.31,7.84-1.39,2.31-2.77,3.46-2.31-3-2.31-3a11.28,11.28,0,0,1-5.3-1.84c-2.08-1.62-3.23-5.08-3.23-5.08l-6-1.84Z" transform="translate(-17 -16.9)" style="fill:#fff;stroke:#263238;stroke-linecap:round;stroke-linejoin:round"></path><path d="M221.8,275.31a67.58,67.58,0,0,0,9-14.53c3.22-7.61,3.69-21,1.61-26.29s-12.69-10.15-20.3-3a83.63,83.63,0,0,0-20.07,30c-4.38,11.77-3,18.92,4.85,24.45s12.45,10.61,20.07,10.84,9.45-6.22,9.45-6.92,1.85-2.07,1.39-7.15S221.8,275.31,221.8,275.31Z" transform="translate(-17 -16.9)" style="fill:#92E3A9;stroke:#263238;stroke-linecap:round;stroke-linejoin:round"></path><line x1="204.8" y1="258.41" x2="192.34" y2="252.42" style="fill:none;stroke:#263238;stroke-linecap:round;stroke-linejoin:round"></line></g></svg>